<?xml version="1.0" encoding="utf-8"?>
<!-- Generator: Adobe Illustrator 16.0.0, SVG Export Plug-In . SVG Version: 6.00 Build 0)  -->
<!DOCTYPE svg PUBLIC "-//W3C//DTD SVG 1.1//EN" "http://www.w3.org/Graphics/SVG/1.1/DTD/svg11.dtd">
<svg version="1.1" id="Layer_2" xmlns="http://www.w3.org/2000/svg" xmlns:xlink="http://www.w3.org/1999/xlink" x="0px" y="0px"
	 width="648px" height="648px" viewBox="0 0 648 648" enable-background="new 0 0 648 648" xml:space="preserve">
<path fill="#999999" d="M217.984,396.833c0,14.636,10.223,26.5,22.834,26.5c12.609,0,22.832-11.864,22.832-26.5
	s-10.223-26.5-22.832-26.5C228.207,370.333,217.984,382.197,217.984,396.833z M235.65,387.667c0-5.799,4.701-10.5,10.5-10.5
	s10.5,4.701,10.5,10.5s-4.701,10.5-10.5,10.5S235.65,393.466,235.65,387.667z"/>
<path fill="#999999" d="M407.484,396.833c0,14.636,10.223,26.5,22.834,26.5c12.609,0,22.832-11.864,22.832-26.5
	s-10.223-26.5-22.832-26.5C417.707,370.333,407.484,382.197,407.484,396.833z M425.65,387.667c0-5.799,4.701-10.5,10.5-10.5
	s10.5,4.701,10.5,10.5s-4.701,10.5-10.5,10.5S425.65,393.466,425.65,387.667z"/>
<ellipse transform="matrix(-0.998 0.0626 -0.0626 -0.998 729.5128 856.7172)" fill="#999999" cx="351.334" cy="439.788" rx="15.629" ry="7.34"/>
<ellipse fill="#999999" cx="495.609" cy="476.25" rx="33.375" ry="28"/>
<ellipse fill="#999999" cx="185.359" cy="479.625" rx="36.625" ry="31.375"/>
<g>
	<path fill="#999999" d="M324.867,546.233c-18.512-1.709-23.871-9.852-26.902-18.396c-3.103-8.743-2.431-31.294,6.691-40.416
		c7.152-7.152,15.477-7.689,22.82-8.164c1.068-0.068,2.395-0.104,3.836-0.104c5.968,0,36.146,0.757,44.193,15.7
		c8.326,15.462-0.58,33.84-9.919,40.632c-9.625,6.999-22.363,11.015-34.949,11.015h-0.001
		C328.725,546.5,326.783,546.41,324.867,546.233z M327.991,487.242c-7.876,0.508-12.996,1.154-17.679,5.836
		c-6.419,6.42-7.16,25.455-4.809,32.084c2.175,6.129,5.349,11.743,20.098,13.104c1.674,0.155,3.367,0.233,5.035,0.233
		c0,0,0,0,0.001,0c15.526-0.001,26.322-6.633,30.244-9.485c7.012-5.1,13.451-19.465,7.58-30.368
		c-4.885-9.073-25.65-11.493-37.149-11.493C329.705,487.153,328.619,487.201,327.991,487.242z"/>
</g>
<path fill="#999999" d="M17.975,185.672l0.021,1.352c0.004,0.226,0.003,0.454,0.025,0.661l0.055,0.551
	c0.106,1.056,0.268,2.024,0.441,2.993c0.708,3.841,1.71,7.458,2.823,11.041c2.237,7.15,4.989,14.044,8.01,20.776
	c6.054,13.458,13.274,26.193,21.048,38.23c7.776,12.042,16.19,23.338,24.821,33.906c0.16,0.192,0.32,0.382,0.48,0.574
	c0.079,0.127,0.155,0.252,0.235,0.379l0.054-0.033c8.455,10.149,16.965,19.778,25.788,28.454c2.321,2.191,4.586,4.386,6.881,6.501
	c1.343,1.171,2.669,2.328,3.979,3.47c0.562,0.489,1.108,0.965,1.639,1.426c1.063,0.919,2.132,1.711,3.074,2.474
	c1.91,1.501,3.444,2.766,4.624,3.552c1.263,0.894,2.469,1.722,3.631,2.493c1.165,0.768,2.367,1.393,3.489,2.02
	c1.866,1.073,10.967,5.162,15.127,6.943c-1.027,1.31-2.057,2.719-3.1,4.281c-0.486,0.685-1.024,1.582-1.679,2.619
	c-0.645,1.044-1.417,2.223-2.167,3.586c-0.752,1.361-1.661,2.811-2.472,4.446c-0.354,0.685-0.715,1.38-1.08,2.087
	c-0.381,0.754-0.803,1.504-1.155,2.298c-0.733,1.578-1.486,3.198-2.258,4.856c-2.905,6.858-5.351,14.217-7.815,21.879
	c-2.438,7.648-4.785,15.544-7.008,23.282c-4.445,15.475-8.324,30.333-11.088,41.325c-1.384,5.495-2.491,10.023-3.248,13.179
	c-0.759,3.155-1.187,4.933-1.187,4.933s-0.994,4.241-2.624,11.19c-1.614,6.954-3.766,16.64-6.046,27.536
	c-2.273,10.897-4.611,23.021-6.647,34.836c-2.041,11.813-3.748,23.323-4.946,32.95c-0.541,4.585-0.99,8.295-1.253,11.245
	c-0.284,2.947-0.517,5.111-0.607,6.607c-0.332,4.124-0.393,26.332-0.253,41.43h6.789c0.48-14.981,0.874-36.762,1.236-40.768
	c0.103-1.46,0.344-3.588,0.631-6.481c0.266-2.895,0.715-6.55,1.251-11.066c1.188-9.491,2.875-20.875,4.895-32.584
	c2.014-11.71,4.327-23.748,6.578-34.577c2.258-10.829,4.389-20.46,5.986-27.377c1.614-6.913,2.599-11.132,2.599-11.132
	s0.427-1.767,1.186-4.904c0.756-3.138,1.862-7.641,3.243-13.105c2.759-10.93,6.629-25.708,11.05-41.07
	c2.211-7.679,4.543-15.511,6.95-23.059c2.413-7.52,4.881-14.875,7.522-21.11c0.727-1.565,1.438-3.095,2.128-4.584
	c0.333-0.753,0.731-1.458,1.09-2.17c0.344-0.666,0.683-1.322,1.017-1.969c0.76-1.547,1.616-2.906,2.318-4.192
	c0.701-1.287,1.423-2.394,2.022-3.377c0.609-0.978,1.107-1.826,1.558-2.469c3.17-4.855,5.678-8.634,8.021-12.322
	c1.189-1.852,8.577-10.808,7.66-11.359s-4.477,2.223-6.43,3.479c-1.968,1.253-3.766,2.614-5.535,4.108
	c-1.052,0.907-2.085,1.88-3.108,2.922c-4.37-2.369-13.776-7.27-15.315-8.473c-0.954-0.728-1.983-1.4-3.023-2.198
	c-1.038-0.802-2.138-1.622-3.313-2.471c-1.093-0.738-2.55-1.959-4.358-3.39c-0.895-0.729-1.901-1.477-2.919-2.361
	c-0.508-0.443-1.032-0.901-1.57-1.372c-1.256-1.097-2.529-2.207-3.818-3.332c-2.213-2.041-4.407-4.17-6.652-6.287
	c-8.343-8.206-16.485-17.388-24.582-27.079l0.009-0.005c-31.025-49.167-29.706-85.777-28.182-97.529
	c4.276,1.273,8.544,2.561,12.785,3.854c6.808,2.091,13.563,4.166,20.247,6.219c3.377,1.002,6.584,2.119,9.826,3.186
	c3.242,1.024,6.427,2.245,9.597,3.421c12.674,4.723,24.864,9.856,36.476,14.997c11.631,5.096,22.675,10.25,33.082,15.144
	c20.785,9.863,38.935,18.913,53.452,26.297c3.623,1.858,7.023,3.602,10.186,5.224c1.787,0.927,3.506,1.819,5.155,2.676
	c0,0,1.24,0.496,2.285,0.396s4.406-1.416,4.661-1.555c1.151-0.467,2.235-0.972,3.455-1.269c0.587-0.171,1.157-0.338,1.712-0.5
	c0.544-0.178,1.146-0.245,1.689-0.368c1.105-0.221,2.141-0.427,3.102-0.619c0.984-0.144,1.912-0.238,2.752-0.346
	c0.705-0.086,1.392-0.169,1.686-0.206c0.44-0.054,0.849-0.104,1.131-0.139c2.561-0.228,5.096-0.31,7.54-0.469
	c2.478-0.115,4.961-0.15,7.337-0.214c4.773-0.093,9.277-0.181,13.525-0.263c8.499-0.127,15.979-0.18,22.556-0.183
	c13.153-0.005,22.693,0.164,29.566,0.338c6.874,0.17,11.08,0.354,13.573,0.453c2.49,0.116,3.267,0.152,3.267,0.152
	s0.462,0.022,2.212,0.105c1.746,0.102,4.782,0.25,9.912,0.608c5.107,0.405,12.39,0.879,22.26,2.47
	c2.438,0.439,8.71,1.917,11.383,2.879c5.307,0.876,7.978-4.023,7.978-4.023c1.563-2.613,3.546-5.395,5.885-8.198
	c1.128-1.427,2.438-2.813,3.704-4.287c1.348-1.421,2.735-2.883,4.161-4.387c3.832-3.836,12.01-11.659,24.603-21.364
	c3.2-2.36,6.562-4.969,10.249-7.59c3.718-2.582,7.563-5.428,11.787-8.17c8.32-5.646,17.661-11.568,27.794-17.68
	c20.282-12.187,43.82-25.208,69.718-37.21c1.481-0.682,2.973-1.359,4.47-2.032c3.15,7.97,9.058,33.065-12.317,82.147l0.008,0.003
	c-2.158,3.227-4.328,6.431-6.51,9.604c-8.539,12.419-17.248,24.412-26.096,35.731c-2.213,2.829-4.435,5.614-6.665,8.352
	c-1.123,1.362-2.241,2.718-3.354,4.068c-0.396,0.473-0.789,0.942-1.181,1.41c-0.547,0.646-1.083,1.28-1.607,1.9
	c-4.21,4.951-7.785,8.9-9.697,10.978c-4.003,4.356-7.001,7.877-9.72,11.379c-1.569,2.006-4.406,4.837-6.348,7.184
	c-2.322-3.151-4.789-5.557-7.39-7.577c-1.914-1.42-3.897-2.628-6.051-3.627c-2.155-0.978-6.738-3.112-7.03-2.237
	c-0.291,0.875,7.772,8.217,9.034,9.913c1.228,1.732,2.468,3.481,3.72,5.439c0.637,0.968,1.257,2.005,1.925,3.074
	c0.623,1.099,1.349,2.237,1.955,3.417c0.699,1.324,1.747,3.443,2.973,6.146c0.62,1.346,1.282,2.838,1.981,4.446
	c0.321,0.744,0.648,1.501,0.98,2.27c0.352,0.826,0.708,1.664,1.069,2.515c0.706,1.711,1.431,3.469,2.173,5.267
	c5.854,14.434,12.139,31.763,17.396,48.549c5.277,16.781,9.484,33.031,11.854,45.117c1.239,6.037,2.009,11.028,2.513,14.5
	c0.277,1.736,0.414,3.095,0.526,4.019c0.109,0.924,0.168,1.413,0.168,1.413s0.034,0.292,0.1,0.849
	c0.064,0.557,0.174,1.379,0.249,2.438c0.088,1.061,0.195,2.359,0.32,3.87s0.154,3.226,0.25,5.13c0.09,1.904,0.012,3.971,0.023,6.206
	c-0.16,2.198-0.188,4.595-0.571,7.016c-0.076,0.61-0.154,1.229-0.232,1.856c-0.086,0.623-0.247,1.224-0.367,1.848
	c-0.264,1.242-0.487,2.492-0.897,3.865c-0.366,1.352-0.733,2.729-1.165,4.114c-0.407,1.392-0.842,2.8-1.319,4.216
	c-3.671,11.387-9.304,23.46-15.807,34.697c-3.227,5.643-6.652,11.075-9.863,16.449c-1.597,2.7-3.151,5.367-4.489,8.224
	c-0.677,1.411-1.273,2.92-1.775,4.497c-0.462,1.624-0.829,3.392-0.722,5.396c0.037,0.433,0.083,0.884,0.137,1.284
	c0.058,0.277,0.113,0.552,0.169,0.822c0.111,0.542,0.219,1.07,0.324,1.586c0.212,1.03,0.412,2.008,0.603,2.935
	c0.381,1.853,0.72,3.501,1.02,4.957c0.547,2.677,5.974,41.251,7.105,48.66h7.914c-0.036-0.169-0.068-0.329-0.105-0.5
	c-0.303-1.438-6.68-46.956-7.25-49.792c-0.288-1.419-0.615-3.024-0.982-4.83c-0.185-0.902-0.379-1.854-0.583-2.858
	c-0.103-0.502-0.208-1.017-0.316-1.544c-0.054-0.264-0.108-0.53-0.163-0.801c-0.01-0.155-0.012-0.269-0.032-0.405
	c-0.038-0.655,0.105-1.601,0.406-2.65c0.352-1.073,0.787-2.221,1.367-3.422c1.118-2.397,2.585-4.936,4.13-7.541
	c3.115-5.217,6.608-10.76,9.921-16.555c6.688-11.561,12.599-24.22,16.438-36.165c0.5-1.486,0.955-2.965,1.383-4.426
	c0.451-1.454,0.836-2.901,1.22-4.32c0.411-1.378,0.703-2.896,1.007-4.347c0.141-0.727,0.322-1.447,0.421-2.154
	c0.09-0.707,0.179-1.406,0.266-2.096c0.424-2.767,0.459-5.351,0.626-7.779c-0.008-2.403,0.066-4.651-0.028-6.672
	c-0.102-2.019-0.139-3.852-0.27-5.438c-0.134-1.587-0.248-2.951-0.341-4.064c-0.081-1.115-0.195-1.969-0.263-2.549
	c-0.068-0.58-0.104-0.884-0.104-0.884s-0.06-0.51-0.173-1.473c-0.116-0.961-0.26-2.382-0.544-4.174
	c-0.518-3.598-1.31-8.755-2.574-14.942c-2.424-12.404-6.692-28.926-12.031-45.93c-5.319-17.013-11.663-34.513-17.607-49.157
	c-0.756-1.828-1.493-3.615-2.212-5.354c-0.369-0.867-0.733-1.723-1.093-2.564c-0.34-0.785-0.675-1.56-1.004-2.32
	c-0.718-1.645-1.402-3.178-2.051-4.573c-1.277-2.794-2.397-5.04-3.229-6.578c-0.34-0.607-0.685-1.183-1.032-1.746
	c2.611-1.409,5.897-3.722,8.032-5.229c3.719-2.643,7.605-6.556,11.759-10.985c1.985-2.113,5.659-6.147,9.955-11.188
	c0.535-0.631,1.082-1.276,1.64-1.934c0.398-0.477,0.8-0.955,1.202-1.436c1.132-1.373,2.27-2.752,3.412-4.137
	c2.267-2.782,4.521-5.609,6.765-8.477c8.969-11.473,17.765-23.588,26.383-36.119c2.466-3.588,4.912-7.219,7.347-10.872l0.014,0.006
	c0.012-0.026,0.022-0.051,0.033-0.077c6.054-9.086,12.006-18.354,17.813-27.767c8.146-13.231,16.046-26.705,23.345-40.469
	c3.63-6.903,7.146-13.825,10.191-21.117c0.755-1.833,1.477-3.69,2.114-5.663c0.16-0.493,0.313-0.995,0.457-1.515l0.211-0.79
	l0.101-0.403l0.136-0.658c0.383-1.804,0.51-3.777-0.151-5.318c-0.306-0.789-0.876-1.483-1.529-2.023
	c-0.671-0.522-1.419-0.966-2.296-1.202l-0.643-0.2l-0.688-0.107c-0.457-0.078-0.916-0.146-1.395-0.145l-0.709-0.028l-0.354-0.014
	l-0.271,0.009l-0.868,0.039c-2.236,0.17-4.24,0.558-6.2,1c-3.898,0.907-7.578,2.063-11.192,3.301
	c-3.613,1.236-7.138,2.579-10.616,3.957c-6.949,2.771-13.688,5.729-20.262,8.757c-26.261,12.176-49.978,25.307-70.476,37.627
	c-10.241,6.18-19.663,12.155-28.123,17.897c-4.28,2.782-8.202,5.683-11.981,8.31c-3.753,2.669-7.191,5.337-10.454,7.747
	c-12.871,9.922-21.371,18.043-25.381,22.066c-1.503,1.584-2.965,3.125-4.386,4.623c-1.357,1.576-2.733,3.036-3.963,4.586
	c-2.519,3.03-4.715,6.071-6.599,9.227c-0.016,0.027-0.023,0.04-0.031,0.053l-0.461-0.155c-0.4-0.132-0.798-0.263-1.191-0.394
	c-0.388-0.104-0.772-0.207-1.153-0.309c-3.059-0.856-5.854-1.348-8.47-1.82c-10.428-1.678-17.779-2.141-23.008-2.559
	c-5.222-0.365-8.297-0.515-10.069-0.617c-1.771-0.084-2.24-0.106-2.24-0.106s-0.786-0.037-3.308-0.154
	c-2.521-0.1-6.776-0.287-13.709-0.458c-6.933-0.176-16.542-0.347-29.769-0.343c-6.613,0.003-14.13,0.056-22.669,0.183
	c-4.271,0.083-8.796,0.171-13.592,0.264c-2.407,0.065-4.845,0.099-7.422,0.216c-2.603,0.166-5.267,0.255-8.021,0.501
	c0.966-0.117,0.06-0.007-1.063,0.128c0.007-0.001-0.001,0-0.033,0.004c0.002,0,0.003,0,0.004,0c-0.003,0-0.006,0-0.009,0.001
	c0.002,0,0.004,0,0.005-0.001c-0.02,0.002-0.046,0.006-0.08,0.01c-0.103,0.013-0.205,0.025-0.31,0.038
	c0.107-0.013,0.187-0.022,0.252-0.03c-0.331,0.04-1.077,0.13-1.831,0.223c-0.918,0.118-1.917,0.222-3.004,0.381
	c-1.093,0.216-2.268,0.449-3.523,0.698c-0.63,0.143-1.271,0.217-1.947,0.429c-0.675,0.195-1.369,0.397-2.083,0.604
	c-1.417,0.356-2.958,1.014-4.571,1.708c-0.375,0.203-0.755,0.409-1.138,0.616c-1.265-0.656-2.584-1.34-3.955-2.051
	c-3.174-1.629-6.589-3.382-10.226-5.248c-14.568-7.415-32.772-16.498-53.649-26.409c-10.456-4.921-21.554-10.102-33.273-15.239
	c-11.697-5.181-23.992-10.363-36.906-15.178c-3.23-1.199-6.466-2.439-9.819-3.502c-3.327-1.096-6.694-2.262-10.024-3.25
	c-6.689-2.055-13.45-4.132-20.263-6.226c-6.823-2.081-13.702-4.175-20.683-6.181c-3.494-0.999-7.006-1.983-10.597-2.88
	c-1.791-0.454-3.613-0.873-5.475-1.256c-1.874-0.374-3.763-0.72-5.919-0.866c-0.277-0.013-0.525-0.043-0.828-0.04l-1.298,0.022
	c-0.899,0.088-1.792,0.187-2.611,0.471c-1.628,0.51-3.023,1.68-3.688,3.229C18.144,183.924,18.048,184.803,17.975,185.672z
	 M147.722,349.369c-0.016,0.017-0.031,0.031-0.047,0.048C147.562,349.36,147.595,349.35,147.722,349.369z"/>
</svg>
